<mxfile host="app.diagrams.net" modified="2024-05-03T16:56:29.764Z" agent="Mozilla/5.0 (X11; Ubuntu; Linux x86_64; rv:125.0) Gecko/20100101 Firefox/125.0" etag="HYn-yafYoTHGE1j7yA6G" scale="1" border="0" version="24.3.1" type="device">
  <diagram id="KdCrRrIsqHHysakkYIEn" name="Page-1">
    <mxGraphModel dx="2474" dy="932" grid="1" gridSize="10" guides="1" tooltips="1" connect="1" arrows="1" fold="1" page="1" pageScale="1" pageWidth="827" pageHeight="1169" math="0" shadow="0">
      <root>
        <mxCell id="0" />
        <mxCell id="1" parent="0" />
        <mxCell id="ht_Mzunb_tVLJNK0aL3s-10" value="STATE_SCAN" style="swimlane;fontStyle=0;childLayout=stackLayout;horizontal=1;startSize=26;horizontalStack=0;resizeParent=1;resizeParentMax=0;resizeLast=0;collapsible=1;marginBottom=0;align=center;fontSize=14;" parent="1" vertex="1">
          <mxGeometry x="290" y="310" width="190" height="56" as="geometry" />
        </mxCell>
        <mxCell id="ht_Mzunb_tVLJNK0aL3s-11" value="/* initialize array of anchors */" style="text;strokeColor=none;fillColor=none;spacingLeft=4;spacingRight=4;overflow=hidden;rotatable=0;points=[[0,0.5],[1,0.5]];portConstraint=eastwest;fontSize=14;" parent="ht_Mzunb_tVLJNK0aL3s-10" vertex="1">
          <mxGeometry y="26" width="190" height="30" as="geometry" />
        </mxCell>
        <mxCell id="ht_Mzunb_tVLJNK0aL3s-14" value="STATE_PONG" style="swimlane;fontStyle=0;childLayout=stackLayout;horizontal=1;startSize=26;horizontalStack=0;resizeParent=1;resizeParentMax=0;resizeLast=0;collapsible=1;marginBottom=0;align=center;fontSize=14;" parent="1" vertex="1">
          <mxGeometry x="667" y="310" width="273" height="80" as="geometry" />
        </mxCell>
        <mxCell id="ht_Mzunb_tVLJNK0aL3s-15" value="/* establish the connection with an anchor &#xa;* store the anchor to the array of anchors */" style="text;strokeColor=none;fillColor=none;spacingLeft=4;spacingRight=4;overflow=hidden;rotatable=0;points=[[0,0.5],[1,0.5]];portConstraint=eastwest;fontSize=14;" parent="ht_Mzunb_tVLJNK0aL3s-14" vertex="1">
          <mxGeometry y="26" width="273" height="54" as="geometry" />
        </mxCell>
        <mxCell id="ht_Mzunb_tVLJNK0aL3s-20" value="" style="endArrow=classic;html=1;rounded=0;strokeColor=default;jumpStyle=none;exitX=1;exitY=0.5;exitDx=0;exitDy=0;entryX=0.004;entryY=0.105;entryDx=0;entryDy=0;entryPerimeter=0;fontSize=14;" parent="1" source="ht_Mzunb_tVLJNK0aL3s-10" edge="1">
          <mxGeometry width="50" height="50" relative="1" as="geometry">
            <mxPoint x="550" y="340" as="sourcePoint" />
            <mxPoint x="667.6400000000001" y="339.14999999999986" as="targetPoint" />
          </mxGeometry>
        </mxCell>
        <mxCell id="ht_Mzunb_tVLJNK0aL3s-21" value="transmitPing()" style="edgeLabel;html=1;align=center;verticalAlign=middle;resizable=0;points=[];fontSize=14;" parent="ht_Mzunb_tVLJNK0aL3s-20" vertex="1" connectable="0">
          <mxGeometry x="-0.0572" y="1" relative="1" as="geometry">
            <mxPoint as="offset" />
          </mxGeometry>
        </mxCell>
        <mxCell id="ht_Mzunb_tVLJNK0aL3s-23" value="wait for other connections" style="text;strokeColor=none;fillColor=none;spacingLeft=4;spacingRight=4;overflow=hidden;rotatable=0;points=[[0,0.5],[1,0.5]];portConstraint=eastwest;fontSize=14;" parent="1" vertex="1">
          <mxGeometry x="800" y="240" width="168" height="30" as="geometry" />
        </mxCell>
        <mxCell id="ht_Mzunb_tVLJNK0aL3s-25" value="" style="endArrow=classic;html=1;rounded=0;strokeColor=default;jumpStyle=none;exitX=0.447;exitY=-0.024;exitDx=0;exitDy=0;exitPerimeter=0;fontSize=14;entryX=0.734;entryY=-0.071;entryDx=0;entryDy=0;entryPerimeter=0;" parent="1" target="ht_Mzunb_tVLJNK0aL3s-10" edge="1">
          <mxGeometry width="50" height="50" relative="1" as="geometry">
            <mxPoint x="791.531" y="308.08" as="sourcePoint" />
            <mxPoint x="387.5" y="310" as="targetPoint" />
            <Array as="points">
              <mxPoint x="792.5" y="270" />
              <mxPoint x="430" y="270" />
            </Array>
          </mxGeometry>
        </mxCell>
        <mxCell id="ht_Mzunb_tVLJNK0aL3s-26" value="PONG_TIMEOUT_MS expires&lt;br style=&quot;font-size: 14px;&quot;&gt;&lt;font style=&quot;font-size: 14px;&quot;&gt;number of anchors &amp;lt; 2&lt;br style=&quot;font-size: 14px;&quot;&gt;&lt;/font&gt;" style="edgeLabel;html=1;align=center;verticalAlign=middle;resizable=0;points=[];fontSize=14;" parent="1" vertex="1" connectable="0">
          <mxGeometry x="590.0007680252164" y="270.0046601956258" as="geometry">
            <mxPoint x="6" as="offset" />
          </mxGeometry>
        </mxCell>
        <mxCell id="ht_Mzunb_tVLJNK0aL3s-27" value="" style="endArrow=classic;html=1;rounded=0;strokeColor=default;jumpStyle=none;entryX=0.484;entryY=-0.047;entryDx=0;entryDy=0;entryPerimeter=0;fontSize=14;" parent="1" target="ht_Mzunb_tVLJNK0aL3s-29" edge="1">
          <mxGeometry width="50" height="50" relative="1" as="geometry">
            <mxPoint x="790" y="392" as="sourcePoint" />
            <mxPoint x="790" y="480" as="targetPoint" />
          </mxGeometry>
        </mxCell>
        <mxCell id="ht_Mzunb_tVLJNK0aL3s-28" value="PONG_TIMEOUT_MS expires&lt;br style=&quot;font-size: 14px;&quot;&gt;&lt;font style=&quot;font-size: 14px;&quot;&gt;number of anchors = 2&lt;br style=&quot;font-size: 14px;&quot;&gt;&lt;/font&gt;" style="edgeLabel;html=1;align=center;verticalAlign=middle;resizable=0;points=[];fontSize=14;" parent="1" vertex="1" connectable="0">
          <mxGeometry x="800.0007680252164" y="450.0046601956257" as="geometry">
            <mxPoint x="8" y="-2" as="offset" />
          </mxGeometry>
        </mxCell>
        <mxCell id="ht_Mzunb_tVLJNK0aL3s-29" value="STATE_ROUNDROBIN" style="swimlane;fontStyle=0;childLayout=stackLayout;horizontal=1;startSize=26;horizontalStack=0;resizeParent=1;resizeParentMax=0;resizeLast=0;collapsible=1;marginBottom=0;align=center;fontSize=14;" parent="1" vertex="1">
          <mxGeometry x="640" y="490" width="310" height="60" as="geometry" />
        </mxCell>
        <mxCell id="ht_Mzunb_tVLJNK0aL3s-30" value="/* Iteratively send POLL to all detected anchors */" style="text;strokeColor=none;fillColor=none;spacingLeft=4;spacingRight=4;overflow=hidden;rotatable=0;points=[[0,0.5],[1,0.5]];portConstraint=eastwest;fontSize=14;" parent="ht_Mzunb_tVLJNK0aL3s-29" vertex="1">
          <mxGeometry y="26" width="310" height="34" as="geometry" />
        </mxCell>
        <mxCell id="ht_Mzunb_tVLJNK0aL3s-32" value="STATE_POLLACK" style="swimlane;fontStyle=0;childLayout=stackLayout;horizontal=1;startSize=26;horizontalStack=0;resizeParent=1;resizeParentMax=0;resizeLast=0;collapsible=1;marginBottom=0;align=center;fontSize=14;" parent="1" vertex="1">
          <mxGeometry x="640" y="650" width="243" height="100" as="geometry" />
        </mxCell>
        <mxCell id="ht_Mzunb_tVLJNK0aL3s-33" value="/* if destination and source match, then&#xa;*  record pollack received time */" style="text;strokeColor=none;fillColor=none;spacingLeft=4;spacingRight=4;overflow=hidden;rotatable=0;points=[[0,0.5],[1,0.5]];portConstraint=eastwest;fontSize=14;" parent="ht_Mzunb_tVLJNK0aL3s-32" vertex="1">
          <mxGeometry y="26" width="243" height="74" as="geometry" />
        </mxCell>
        <mxCell id="ht_Mzunb_tVLJNK0aL3s-35" value="STATE_RANGEREPORT" style="swimlane;fontStyle=0;childLayout=stackLayout;horizontal=1;startSize=26;horizontalStack=0;resizeParent=1;resizeParentMax=0;resizeLast=0;collapsible=1;marginBottom=0;align=center;fontSize=14;" parent="1" vertex="1">
          <mxGeometry x="240" y="640" width="215" height="110" as="geometry" />
        </mxCell>
        <mxCell id="ht_Mzunb_tVLJNK0aL3s-36" value="/* if destination and source match&#xa;*  calculate the distance from the &#xa;*  collected timestamps */" style="text;strokeColor=none;fillColor=none;spacingLeft=4;spacingRight=4;overflow=hidden;rotatable=0;points=[[0,0.5],[1,0.5]];portConstraint=eastwest;fontSize=14;" parent="ht_Mzunb_tVLJNK0aL3s-35" vertex="1">
          <mxGeometry y="26" width="215" height="84" as="geometry" />
        </mxCell>
        <mxCell id="ht_Mzunb_tVLJNK0aL3s-37" value="" style="endArrow=classic;html=1;rounded=0;strokeColor=default;jumpStyle=none;entryX=0.903;entryY=1.056;entryDx=0;entryDy=0;entryPerimeter=0;fontSize=14;exitX=1.001;exitY=0.466;exitDx=0;exitDy=0;exitPerimeter=0;" parent="1" source="ht_Mzunb_tVLJNK0aL3s-33" target="ht_Mzunb_tVLJNK0aL3s-30" edge="1">
          <mxGeometry width="50" height="50" relative="1" as="geometry">
            <mxPoint x="880" y="713" as="sourcePoint" />
            <mxPoint x="886" y="710" as="targetPoint" />
            <Array as="points">
              <mxPoint x="920" y="710" />
              <mxPoint x="920" y="660" />
            </Array>
          </mxGeometry>
        </mxCell>
        <mxCell id="ht_Mzunb_tVLJNK0aL3s-39" value="" style="endArrow=classic;html=1;rounded=0;strokeColor=default;jumpStyle=none;exitX=0.39;exitY=0.997;exitDx=0;exitDy=0;exitPerimeter=0;entryX=0.5;entryY=0;entryDx=0;entryDy=0;fontSize=14;" parent="1" source="ht_Mzunb_tVLJNK0aL3s-30" target="ht_Mzunb_tVLJNK0aL3s-32" edge="1">
          <mxGeometry width="50" height="50" relative="1" as="geometry">
            <mxPoint x="761" y="580" as="sourcePoint" />
            <mxPoint x="760" y="670" as="targetPoint" />
          </mxGeometry>
        </mxCell>
        <mxCell id="ht_Mzunb_tVLJNK0aL3s-42" value="&lt;font style=&quot;font-size: 14px;&quot;&gt;idx_anchor &amp;lt; num_anchors&lt;br style=&quot;font-size: 14px;&quot;&gt;( transmitPoll()&lt;br style=&quot;font-size: 14px;&quot;&gt;&lt;font style=&quot;font-size: 14px;&quot;&gt;record poll sent time )&lt;br style=&quot;font-size: 14px;&quot;&gt;&lt;/font&gt;&lt;/font&gt;" style="edgeLabel;html=1;align=center;verticalAlign=middle;resizable=0;points=[];fontSize=14;" parent="1" vertex="1" connectable="0">
          <mxGeometry x="761.5038530020233" y="585.0016118025146" as="geometry" />
        </mxCell>
        <mxCell id="ht_Mzunb_tVLJNK0aL3s-43" value="" style="endArrow=classic;html=1;rounded=0;strokeColor=default;jumpStyle=none;exitX=-0.002;exitY=0.452;exitDx=0;exitDy=0;entryX=1;entryY=0.5;entryDx=0;entryDy=0;fontSize=14;exitPerimeter=0;" parent="1" source="ht_Mzunb_tVLJNK0aL3s-33" target="ht_Mzunb_tVLJNK0aL3s-36" edge="1">
          <mxGeometry width="50" height="50" relative="1" as="geometry">
            <mxPoint x="340.24" y="805.4405594405596" as="sourcePoint" />
            <mxPoint x="360" y="738" as="targetPoint" />
            <Array as="points" />
          </mxGeometry>
        </mxCell>
        <mxCell id="ht_Mzunb_tVLJNK0aL3s-44" value="transmitRange()&lt;br style=&quot;font-size: 14px;&quot;&gt;&lt;font style=&quot;font-size: 14px;&quot;&gt;( record range sent time )&lt;br style=&quot;font-size: 14px;&quot;&gt;&lt;/font&gt;" style="edgeLabel;html=1;align=center;verticalAlign=middle;resizable=0;points=[];fontSize=14;" parent="ht_Mzunb_tVLJNK0aL3s-43" vertex="1" connectable="0">
          <mxGeometry x="-0.0227" relative="1" as="geometry">
            <mxPoint x="-3" y="22" as="offset" />
          </mxGeometry>
        </mxCell>
        <mxCell id="ht_Mzunb_tVLJNK0aL3s-45" value="" style="endArrow=classic;html=1;rounded=0;strokeColor=default;jumpStyle=none;exitX=1.003;exitY=0.147;exitDx=0;exitDy=0;exitPerimeter=0;entryX=1.01;entryY=0.361;entryDx=0;entryDy=0;entryPerimeter=0;fontSize=14;" parent="1" target="ZB6a2oAtnxAXg-gOM-Wv-3" edge="1">
          <mxGeometry width="50" height="50" relative="1" as="geometry">
            <mxPoint x="640.0689999999998" y="534.5880000000002" as="sourcePoint" />
            <mxPoint x="400" y="535" as="targetPoint" />
          </mxGeometry>
        </mxCell>
        <mxCell id="ht_Mzunb_tVLJNK0aL3s-47" value="all anchors responded" style="edgeLabel;html=1;align=center;verticalAlign=middle;resizable=0;points=[];fontSize=14;" parent="ht_Mzunb_tVLJNK0aL3s-45" vertex="1" connectable="0">
          <mxGeometry x="0.0342" relative="1" as="geometry">
            <mxPoint x="6" as="offset" />
          </mxGeometry>
        </mxCell>
        <mxCell id="ht_Mzunb_tVLJNK0aL3s-46" value="" style="endArrow=classic;html=1;rounded=0;strokeColor=default;jumpStyle=none;exitX=1;exitY=0.25;exitDx=0;exitDy=0;entryX=0.004;entryY=0.746;entryDx=0;entryDy=0;fontSize=14;entryPerimeter=0;" parent="1" source="ht_Mzunb_tVLJNK0aL3s-35" target="ht_Mzunb_tVLJNK0aL3s-30" edge="1">
          <mxGeometry width="50" height="50" relative="1" as="geometry">
            <mxPoint x="402.99999999999983" y="545.21" as="sourcePoint" />
            <mxPoint x="636.5970000000001" y="544.79" as="targetPoint" />
          </mxGeometry>
        </mxCell>
        <mxCell id="ht_Mzunb_tVLJNK0aL3s-48" value="RANGE_REPORT_TIMEOUT_MS&lt;br style=&quot;font-size: 14px;&quot;&gt;expires&lt;br style=&quot;font-size: 14px;&quot;&gt;&lt;font style=&quot;font-size: 14px;&quot;&gt;(idx_anchor++)&lt;/font&gt;" style="edgeLabel;html=1;align=center;verticalAlign=middle;resizable=0;points=[];fontSize=14;" parent="ht_Mzunb_tVLJNK0aL3s-46" vertex="1" connectable="0">
          <mxGeometry x="0.269" y="-3" relative="1" as="geometry">
            <mxPoint x="-37" y="17" as="offset" />
          </mxGeometry>
        </mxCell>
        <mxCell id="ht_Mzunb_tVLJNK0aL3s-49" value="" style="endArrow=classic;html=1;rounded=0;strokeColor=default;jumpStyle=none;exitX=0.154;exitY=-0.009;exitDx=0;exitDy=0;exitPerimeter=0;entryX=0.785;entryY=1.067;entryDx=0;entryDy=0;entryPerimeter=0;fontSize=14;" parent="1" source="ht_Mzunb_tVLJNK0aL3s-29" target="ht_Mzunb_tVLJNK0aL3s-11" edge="1">
          <mxGeometry width="50" height="50" relative="1" as="geometry">
            <mxPoint x="379.9989999999998" y="429.99799999999993" as="sourcePoint" />
            <mxPoint x="360" y="366" as="targetPoint" />
            <Array as="points">
              <mxPoint x="688" y="440" />
              <mxPoint x="440" y="440" />
            </Array>
          </mxGeometry>
        </mxCell>
        <mxCell id="ht_Mzunb_tVLJNK0aL3s-50" value="&lt;div style=&quot;font-size: 14px;&quot;&gt;anchor responses &amp;lt; number of anchors&lt;/div&gt;&lt;div style=&quot;font-size: 14px;&quot;&gt;delay(SLEEP)&lt;br style=&quot;font-size: 14px;&quot;&gt;&lt;/div&gt;" style="edgeLabel;html=1;align=center;verticalAlign=middle;resizable=0;points=[];fontSize=14;" parent="ht_Mzunb_tVLJNK0aL3s-49" vertex="1" connectable="0">
          <mxGeometry x="0.0342" relative="1" as="geometry">
            <mxPoint x="24" as="offset" />
          </mxGeometry>
        </mxCell>
        <mxCell id="ht_Mzunb_tVLJNK0aL3s-53" value="&lt;span style=&quot;font-size: 14px; background-color: rgb(248, 249, 250);&quot;&gt;POLLACK_TIMEOUT_MS&amp;nbsp;&lt;/span&gt;expires&lt;br style=&quot;font-size: 14px;&quot;&gt;&lt;font style=&quot;font-size: 14px;&quot;&gt;(idx_anchor++)&lt;/font&gt;" style="edgeLabel;html=1;align=center;verticalAlign=middle;resizable=0;points=[];fontSize=14;" parent="1" vertex="1" connectable="0">
          <mxGeometry x="939.9951546776897" y="630.0038962733017" as="geometry" />
        </mxCell>
        <mxCell id="ZB6a2oAtnxAXg-gOM-Wv-2" value="STATE_SEND_REQUEST_TO_SERVER" style="swimlane;fontStyle=0;childLayout=stackLayout;horizontal=1;startSize=26;horizontalStack=0;resizeParent=1;resizeParentMax=0;resizeLast=0;collapsible=1;marginBottom=0;align=center;fontSize=14;" parent="1" vertex="1">
          <mxGeometry x="210" y="490" width="260" height="80" as="geometry" />
        </mxCell>
        <mxCell id="ZB6a2oAtnxAXg-gOM-Wv-3" value="/**/" style="text;strokeColor=none;fillColor=none;spacingLeft=4;spacingRight=4;overflow=hidden;rotatable=0;points=[[0,0.5],[1,0.5]];portConstraint=eastwest;fontSize=14;" parent="ZB6a2oAtnxAXg-gOM-Wv-2" vertex="1">
          <mxGeometry y="26" width="260" height="54" as="geometry" />
        </mxCell>
        <mxCell id="ZB6a2oAtnxAXg-gOM-Wv-6" value="STATE_SEND_DISTANCE_TO_SERVER" style="swimlane;fontStyle=0;childLayout=stackLayout;horizontal=1;startSize=26;horizontalStack=0;resizeParent=1;resizeParentMax=0;resizeLast=0;collapsible=1;marginBottom=0;align=center;fontSize=14;" parent="1" vertex="1">
          <mxGeometry x="-130" y="301" width="270" height="90" as="geometry" />
        </mxCell>
        <mxCell id="ZB6a2oAtnxAXg-gOM-Wv-7" value="/* send data&#xa;* wait 30 sec for a response&#xa;* read ack */" style="text;strokeColor=none;fillColor=none;spacingLeft=4;spacingRight=4;overflow=hidden;rotatable=0;points=[[0,0.5],[1,0.5]];portConstraint=eastwest;fontSize=14;" parent="ZB6a2oAtnxAXg-gOM-Wv-6" vertex="1">
          <mxGeometry y="26" width="270" height="64" as="geometry" />
        </mxCell>
        <mxCell id="ZB6a2oAtnxAXg-gOM-Wv-9" value="STATE_REQUEST_ACK_FROM_SERVER" style="swimlane;fontStyle=0;childLayout=stackLayout;horizontal=1;startSize=26;horizontalStack=0;resizeParent=1;resizeParentMax=0;resizeLast=0;collapsible=1;marginBottom=0;align=center;fontSize=14;" parent="1" vertex="1">
          <mxGeometry x="-190" y="485" width="270" height="70" as="geometry" />
        </mxCell>
        <mxCell id="ZB6a2oAtnxAXg-gOM-Wv-10" value="/* wait 30 sec for a response&#xa;* read ack */" style="text;strokeColor=none;fillColor=none;spacingLeft=4;spacingRight=4;overflow=hidden;rotatable=0;points=[[0,0.5],[1,0.5]];portConstraint=eastwest;fontSize=14;" parent="ZB6a2oAtnxAXg-gOM-Wv-9" vertex="1">
          <mxGeometry y="26" width="270" height="44" as="geometry" />
        </mxCell>
        <mxCell id="ZB6a2oAtnxAXg-gOM-Wv-11" style="edgeStyle=orthogonalEdgeStyle;rounded=0;orthogonalLoop=1;jettySize=auto;html=1;exitX=0.997;exitY=0.206;exitDx=0;exitDy=0;exitPerimeter=0;fontSize=14;" parent="1" source="ZB6a2oAtnxAXg-gOM-Wv-7" edge="1">
          <mxGeometry relative="1" as="geometry">
            <mxPoint x="290" y="340" as="targetPoint" />
            <Array as="points">
              <mxPoint x="290" y="340" />
            </Array>
          </mxGeometry>
        </mxCell>
        <mxCell id="ZB6a2oAtnxAXg-gOM-Wv-12" style="edgeStyle=orthogonalEdgeStyle;rounded=0;orthogonalLoop=1;jettySize=auto;html=1;exitX=0.52;exitY=0.001;exitDx=0;exitDy=0;exitPerimeter=0;fontSize=14;entryX=0.301;entryY=1.037;entryDx=0;entryDy=0;entryPerimeter=0;" parent="1" source="ZB6a2oAtnxAXg-gOM-Wv-9" target="ZB6a2oAtnxAXg-gOM-Wv-7" edge="1">
          <mxGeometry relative="1" as="geometry">
            <mxPoint x="-190" y="485" as="sourcePoint" />
            <mxPoint x="-100" y="410" as="targetPoint" />
            <Array as="points">
              <mxPoint x="-50" y="448" />
              <mxPoint x="-49" y="448" />
              <mxPoint x="-49" y="414" />
            </Array>
          </mxGeometry>
        </mxCell>
        <mxCell id="ZB6a2oAtnxAXg-gOM-Wv-18" value="server is available" style="edgeLabel;html=1;align=center;verticalAlign=middle;resizable=0;points=[];fontSize=14;" parent="ZB6a2oAtnxAXg-gOM-Wv-12" vertex="1" connectable="0">
          <mxGeometry x="-0.0376" y="-1" relative="1" as="geometry">
            <mxPoint y="1" as="offset" />
          </mxGeometry>
        </mxCell>
        <mxCell id="ZB6a2oAtnxAXg-gOM-Wv-13" style="edgeStyle=orthogonalEdgeStyle;rounded=0;orthogonalLoop=1;jettySize=auto;html=1;exitX=-0.001;exitY=0.583;exitDx=0;exitDy=0;fontSize=14;exitPerimeter=0;" parent="1" edge="1">
          <mxGeometry relative="1" as="geometry">
            <Array as="points">
              <mxPoint x="146" y="548" />
              <mxPoint x="80" y="548" />
            </Array>
            <mxPoint x="210" y="548.482" as="sourcePoint" />
            <mxPoint x="80" y="548" as="targetPoint" />
          </mxGeometry>
        </mxCell>
        <mxCell id="ZB6a2oAtnxAXg-gOM-Wv-19" value="&lt;div style=&quot;font-size: 14px;&quot;&gt;server is available&lt;/div&gt;&lt;div style=&quot;font-size: 14px;&quot;&gt;request distance transmission&lt;/div&gt;" style="edgeLabel;html=1;align=center;verticalAlign=middle;resizable=0;points=[];fontSize=14;" parent="ZB6a2oAtnxAXg-gOM-Wv-13" vertex="1" connectable="0">
          <mxGeometry x="0.0367" y="-2" relative="1" as="geometry">
            <mxPoint x="-23" y="34" as="offset" />
          </mxGeometry>
        </mxCell>
        <mxCell id="ZB6a2oAtnxAXg-gOM-Wv-16" value="" style="endArrow=classic;html=1;rounded=0;strokeColor=default;jumpStyle=none;entryX=-0.015;entryY=0.852;entryDx=0;entryDy=0;entryPerimeter=0;exitX=1.015;exitY=0.321;exitDx=0;exitDy=0;exitPerimeter=0;fontSize=14;" parent="1" source="ZB6a2oAtnxAXg-gOM-Wv-9" target="ht_Mzunb_tVLJNK0aL3s-11" edge="1">
          <mxGeometry width="50" height="50" relative="1" as="geometry">
            <mxPoint x="-20" y="520" as="sourcePoint" />
            <mxPoint x="280" y="366" as="targetPoint" />
          </mxGeometry>
        </mxCell>
        <mxCell id="ZB6a2oAtnxAXg-gOM-Wv-17" value="&lt;div style=&quot;font-size: 14px;&quot;&gt;server is not available /&amp;nbsp;&lt;/div&gt;&lt;div style=&quot;font-size: 14px;&quot;&gt;server is busy with other communications&amp;nbsp; &lt;/div&gt;" style="edgeLabel;html=1;align=center;verticalAlign=middle;resizable=0;points=[];fontSize=14;" parent="ZB6a2oAtnxAXg-gOM-Wv-16" vertex="1" connectable="0">
          <mxGeometry x="0.269" y="-3" relative="1" as="geometry">
            <mxPoint x="-37" y="33" as="offset" />
          </mxGeometry>
        </mxCell>
        <mxCell id="ht_Mzunb_tVLJNK0aL3s-22" value="" style="endArrow=classic;html=1;rounded=0;strokeColor=default;jumpStyle=none;exitX=0.852;exitY=-0.019;exitDx=0;exitDy=0;entryX=0.669;entryY=-0.01;entryDx=0;entryDy=0;entryPerimeter=0;exitPerimeter=0;fontSize=14;" parent="1" source="ht_Mzunb_tVLJNK0aL3s-14" target="ht_Mzunb_tVLJNK0aL3s-14" edge="1">
          <mxGeometry width="50" height="50" relative="1" as="geometry">
            <mxPoint x="899.7270000000003" y="269.9959999999999" as="sourcePoint" />
            <mxPoint x="900.5459999999998" y="239.75600000000003" as="targetPoint" />
            <Array as="points">
              <mxPoint x="900" y="270" />
              <mxPoint x="850" y="270" />
            </Array>
          </mxGeometry>
        </mxCell>
        <mxCell id="jaNZE2Xm1EI3nq_TcbwM-3" value="" style="edgeStyle=orthogonalEdgeStyle;rounded=0;orthogonalLoop=1;jettySize=auto;html=1;" parent="1" source="jaNZE2Xm1EI3nq_TcbwM-1" target="jaNZE2Xm1EI3nq_TcbwM-2" edge="1">
          <mxGeometry relative="1" as="geometry" />
        </mxCell>
        <mxCell id="jaNZE2Xm1EI3nq_TcbwM-1" value="Tag &lt;font style=&quot;font-size: 16px;&quot;&gt;Init&lt;/font&gt;" style="text;html=1;align=center;verticalAlign=middle;whiteSpace=wrap;rounded=0;fontSize=16;" parent="1" vertex="1">
          <mxGeometry x="330" y="144" width="60" height="30" as="geometry" />
        </mxCell>
        <mxCell id="jaNZE2Xm1EI3nq_TcbwM-5" value="" style="edgeStyle=orthogonalEdgeStyle;rounded=0;orthogonalLoop=1;jettySize=auto;html=1;" parent="1" source="jaNZE2Xm1EI3nq_TcbwM-2" edge="1">
          <mxGeometry relative="1" as="geometry">
            <mxPoint x="360" y="310" as="targetPoint" />
          </mxGeometry>
        </mxCell>
        <mxCell id="jaNZE2Xm1EI3nq_TcbwM-2" value="&lt;font style=&quot;font-size: 16px;&quot;&gt;Server connection&lt;/font&gt;" style="text;html=1;align=center;verticalAlign=middle;whiteSpace=wrap;rounded=0;fontSize=16;" parent="1" vertex="1">
          <mxGeometry x="315" y="200" width="90" height="50" as="geometry" />
        </mxCell>
      </root>
    </mxGraphModel>
  </diagram>
</mxfile>
